<?xml version="1.0" encoding="utf-8"?>
<!-- Generator: Adobe Illustrator 28.2.0, SVG Export Plug-In . SVG Version: 6.00 Build 0)  -->
<svg version="1.1" id="Layer_1" xmlns="http://www.w3.org/2000/svg" xmlns:xlink="http://www.w3.org/1999/xlink" x="0px" y="0px"
	 viewBox="0 0 800 800" style="enable-background:new 0 0 800 800;" xml:space="preserve">
<style type="text/css">
	.st0{fill:#FFDD09;}
	.st1{fill:#1CD759;}
	.st2{fill:#15A143;}
	.st3{fill:#FFFFFF;}
	.st4{fill:#FD9808;}
</style>
<g transform="translate(1 1)">
	<path class="st0" d="M448.6,603.7c0-81.9,59.6-148.9,132.8-148.9c42.2,0,79.4,22.3,103,55.8c12.4-37.2,18.6-76.9,18.6-117.9
		c0-192.3-139-347.4-310.2-347.4S82.6,200.5,82.6,392.8s139,347.4,310.2,347.4c37.2,0,72-7.4,105.5-21.1
		C467.2,691.8,448.6,650.9,448.6,603.7"/>
	<path class="st1" d="M715.4,603.7c0,81.9-58.3,148.9-130.3,148.9s-130.3-67-130.3-148.9s58.3-148.9,130.3-148.9
		S715.4,521.8,715.4,603.7"/>
	<path class="st2" d="M603.7,454.8c-3.7,0-6.2,0-9.9,0c68.2,5,121.6,69.5,121.6,148.9S662,746.4,593.8,752.6c3.7,0,6.2,0,9.9,0
		c81.9,0,148.9-67,148.9-148.9S685.6,454.8,603.7,454.8"/>
	<path class="st3" d="M45.4,392.8c0,192.3,155.1,347.4,347.4,347.4c-171.2,0-310.2-155.1-310.2-347.4s139-347.4,310.2-347.4
		C200.5,45.4,45.4,200.5,45.4,392.8"/>
	<path class="st4" d="M392.8,45.4C564,45.4,703,200.5,703,392.8c0,31-3.7,62-11.2,91.8c9.9,7.4,19.9,16.1,27.3,26.1
		c13.6-37.2,21.1-76.9,21.1-117.9C740.2,200.5,585.1,45.4,392.8,45.4"/>
	<path d="M603.7,765c-89.3,0-161.3-72-161.3-161.3s72-161.3,161.3-161.3S765,514.4,765,603.7S693,765,603.7,765z M603.7,467.2
		c-75.7,0-136.5,60.8-136.5,136.5S528,740.2,603.7,740.2s136.5-60.8,136.5-136.5S679.4,467.2,603.7,467.2z"/>
	<path d="M601.2,664.5c-2.5,0-6.2-1.2-7.4-2.5l-59.6-48.4c-5-3.7-6.2-12.4-1.2-17.4c3.7-5,12.4-6.2,17.4-1.2l48.4,39.7l69.5-99.3
		c3.7-6.2,11.2-7.4,17.4-2.5c6.2,3.7,7.4,11.2,2.5,17.4l-76.9,110.4c-2.5,2.5-5,5-8.7,5C602.5,664.5,601.2,664.5,601.2,664.5z"/>
	<path d="M392.8,752.6c-7.4,0-12.4-5-12.4-12.4V45.4c0-7.4,5-12.4,12.4-12.4c7.4,0,12.4,5,12.4,12.4v694.8
		C405.2,747.6,400.2,752.6,392.8,752.6z"/>
	<path d="M392.8,752.6c-1.2,0-3.7,0-5,0h-7.4l-3.7-2.5c-107.9-88.1-170-218.4-170-357.3s62-269.2,170-357.3l3.7-2.5h7.4
		c1.2,0,3.7,0,5,0c7.4,0,12.4,5,12.4,12.4s-5,12.4-12.4,12.4c-1.2,0-2.5,0-3.7,0c-100.5,83.1-157.6,204.7-157.6,335
		s57.1,251.9,157.6,335c1.2,0,2.5,0,3.7,0c7.4,0,12.4,5,12.4,12.4C405.2,747.6,400.2,752.6,392.8,752.6z"/>
	<path d="M392.8,243.9c-93.1,0-182.4-27.3-259.3-79.4c-5-5-6.2-12.4-2.5-17.4c3.7-6.2,11.2-7.4,17.4-3.7
		c72,49.6,157.6,75.7,244.4,75.7s172.5-26.1,244.4-75.7c6.2-3.7,13.6-2.5,17.4,3.7c3.7,6.2,2.5,13.6-3.7,17.4
		C575.2,216.6,485.8,243.9,392.8,243.9z"/>
	<path d="M133.5,637.2c-3.7,0-7.4-1.2-9.9-5c-3.7-5-2.5-13.6,2.5-17.4c79.4-55.8,171.2-85.6,266.7-85.6c7.4,0,12.4,5,12.4,12.4
		c0,7.4-5,12.4-12.4,12.4c-90.6,0-177.4,27.3-251.9,80.6C138.5,636,136,637.2,133.5,637.2z"/>
	<path d="M562.8,467.2h-1.2c-6.2-1.2-11.2-7.4-11.2-13.6c2.5-19.9,3.7-39.7,3.7-60.8c0-130.3-57.1-251.9-157.6-335
		c-1.2,0-2.5,0-3.7,0c-7.4,0-12.4-5-12.4-12.4s5-12.4,12.4-12.4c2.5,0,3.7,0,6.2,0h6.2l3.7,2.5c107.9,88.1,170,218.4,170,357.3
		c0,21.1-1.2,42.2-5,63.3C573.9,462.3,567.7,467.2,562.8,467.2z"/>
	<path d="M740.2,405.2H45.4c-7.4,0-12.4-5-12.4-12.4c0-7.4,5-12.4,12.4-12.4h694.8c7.4,0,12.4,5,12.4,12.4
		C752.6,400.2,747.6,405.2,740.2,405.2z"/>
	<path d="M392.8,752.6C194.3,752.6,33,591.3,33,392.8S194.3,33,392.8,33s359.8,161.3,359.8,359.8c0,42.2-7.4,83.1-21.1,121.6
		l-7.4,21.1l-13.6-17.4c-26.1-32.3-65.8-50.9-106.7-50.9c-75.7,0-136.5,60.8-136.5,136.5c0,40.9,18.6,80.6,50.9,106.7l17.4,13.6
		l-21.1,7.4C475.9,745.1,435,752.6,392.8,752.6z M392.8,57.8c-184.9,0-335,150.1-335,335s150.1,335,335,335c32.3,0,63.3-5,94.3-13.6
		c-28.5-29.8-44.7-68.2-44.7-110.4c0-89.3,72-161.3,161.3-161.3c42.2,0,80.6,16.1,110.4,44.7c8.7-29.8,13.6-62,13.6-94.3
		C727.8,207.9,577.7,57.8,392.8,57.8z"/>
</g>
</svg>
