<?xml version="1.0" encoding="utf-8"?>
<!-- Generator: Adobe Illustrator 28.2.0, SVG Export Plug-In . SVG Version: 6.00 Build 0)  -->
<svg version="1.1" id="Layer_1" xmlns="http://www.w3.org/2000/svg" xmlns:xlink="http://www.w3.org/1999/xlink" x="0px" y="0px"
	 viewBox="0 0 800 800" style="enable-background:new 0 0 800 800;" xml:space="preserve">
<style type="text/css">
	.st0{fill:#40F2D0;}
</style>
<path class="st0" d="M545.2,437.5h-80.8c-13.8,0-25-11.2-25-25c0-13.8,11.2-25,25-25h20.4l-175-175c-9.3-10.2-8.5-26,1.7-35.3
	c9.5-8.6,24-8.7,33.6-0.1l217.4,217.4c9.9,9.6,10.2,25.4,0.7,35.3C558.5,434.7,552,437.5,545.2,437.5z"/>
<path class="st0" d="M545.2,437.5c-13.8,0-25-11.2-25-25v-83.8c0-13.8,11.2-25,25-25c13.8,0,25,11.2,25,25v83.8
	C570.2,426.3,559.1,437.5,545.2,437.5z"/>
<path class="st0" d="M473,631.1c-6.6,0-13-2.7-17.6-7.4L237.5,405.5c-9.9-9.6-10.2-25.4-0.7-35.3c4.7-4.9,11.1-7.6,17.9-7.7h80.8
	c13.8,0,25,11.2,25,25c0,13.8-11.2,25-25,25h-20.4l175,175c9.8,9.7,9.9,25.6,0.1,35.4c-4.7,4.7-11.1,7.4-17.8,7.4L473,631.1z"/>
<path class="st0" d="M254.7,496.2c-13.8,0-25-11.2-25-25v-83.8c0-13.8,11.2-25,25-25c13.8,0,25,11.2,25,25v83.8
	C279.8,485.1,268.6,496.2,254.7,496.2z"/>
<path class="st0" d="M400,752.6C205.3,752.6,47.4,594.7,47.4,400S205.3,47.4,400,47.4S752.6,205.3,752.6,400l0,0
	c0,13.8-11.2,25-25,25c-13.8,0-25-11.2-25-25C702.6,232.9,567.1,97.5,400,97.6C233,97.7,97.6,233.1,97.6,400.2
	c0.1,167.1,135.5,302.5,302.6,302.4c122.5,0,232.8-73.9,279.5-187.1c5.9-12.5,20.9-17.7,33.3-11.8c11.6,5.5,17.1,18.9,12.8,30.9
	C671.6,666.8,542.8,752.9,400,752.6z"/>
</svg>
