<?xml version="1.0" encoding="utf-8"?>
<!-- Generator: Adobe Illustrator 27.9.0, SVG Export Plug-In . SVG Version: 6.00 Build 0)  -->
<svg version="1.1" id="圖層_1" xmlns="http://www.w3.org/2000/svg" xmlns:xlink="http://www.w3.org/1999/xlink" x="0px" y="0px"
	 viewBox="0 0 335 269" style="enable-background:new 0 0 335 269;" xml:space="preserve">
<style type="text/css">
	.st0{enable-background:new    ;}
	.st1{fill:url(#SVGID_1_);}
	.st2{opacity:0.6;}
	.st3{fill:url(#SVGID_00000093178580781773122070000009355616675425932205_);}
	.st4{fill:url(#SVGID_00000011024965946689307710000011275977241099479203_);}
	.st5{fill:url(#SVGID_00000178886937838127702420000001646873436166022308_);}
	
		.st6{fill:none;stroke:url(#SVGID_00000006710099715417149930000001954090407901184905_);stroke-width:0.75;stroke-linecap:round;stroke-linejoin:round;stroke-miterlimit:10;}
	.st7{fill:url(#SVGID_00000164473379880570109640000017132992269033201074_);}
	.st8{fill:url(#SVGID_00000076599077183217415900000017063578769133502348_);}
	
		.st9{fill:none;stroke:url(#SVGID_00000134968075312146454900000006807177444456799909_);stroke-width:6;stroke-linecap:round;stroke-linejoin:round;stroke-miterlimit:10;}
	.st10{fill:url(#SVGID_00000168814993716187812320000018032461268398278836_);}
	
		.st11{fill:none;stroke:url(#SVGID_00000000182488603288757690000005750355048946098829_);stroke-width:7;stroke-linecap:round;stroke-linejoin:round;stroke-miterlimit:10;}
	
		.st12{fill:none;stroke:url(#SVGID_00000104672607312632886870000007695032157757606787_);stroke-width:7;stroke-linecap:round;stroke-linejoin:round;stroke-miterlimit:10;}
	
		.st13{fill:none;stroke:url(#SVGID_00000129176330641123302930000014332211193301048192_);stroke-width:7;stroke-linecap:round;stroke-linejoin:round;stroke-miterlimit:10;}
</style>
<g>
	<g>
		<g class="st0">
			<g>
				
					<linearGradient id="SVGID_1_" gradientUnits="userSpaceOnUse" x1="146.6974" y1="75.555" x2="185.2126" y2="75.555" gradientTransform="matrix(1 0 0 -1 0 270)">
					<stop  offset="0" style="stop-color:#47F4FF"/>
					<stop  offset="0.1673" style="stop-color:#41DDFB"/>
					<stop  offset="0.7363" style="stop-color:#2F94F0"/>
					<stop  offset="1" style="stop-color:#2877EB"/>
				</linearGradient>
				<path class="st1" d="M152.94,200.43c-7.23-3.31-7.26-8.68-0.09-11.99c7.17-3.3,18.89-3.31,26.12,0s7.26,8.68,0.09,11.99
					C171.88,203.74,160.16,203.74,152.94,200.43 M179.54,188.19c-7.54-3.45-19.76-3.45-27.25,0s-7.45,9.06,0.08,12.51
					c7.54,3.45,19.76,3.45,27.25,0S187.07,191.64,179.54,188.19"/>
			</g>
		</g>
	</g>
	<g class="st2">
		<g class="st0">
			<g>
				
					<linearGradient id="SVGID_00000119818468562123831070000001560264601405327018_" gradientUnits="userSpaceOnUse" x1="-527.6866" y1="221.2818" x2="-489.1643" y2="221.2818" gradientTransform="matrix(-3.1491 0 0 3.1491 -1435.129 -502.3929)">
					<stop  offset="0" style="stop-color:#47F4FF"/>
					<stop  offset="0.1673" style="stop-color:#41DDFB"/>
					<stop  offset="0.7363" style="stop-color:#2F94F0"/>
					<stop  offset="1" style="stop-color:#2877EB"/>
				</linearGradient>
				<path style="fill:url(#SVGID_00000119818468562123831070000001560264601405327018_);" d="M205.34,177.17
					c22.11,9.56,22.23,25.11,0.26,34.66c-21.96,9.55-57.83,9.56-79.94,0s-22.22-25.11-0.26-34.66
					C147.37,167.61,183.22,167.61,205.34,177.17 M123.18,214.14c23.74,10.86,62.23,10.86,85.81,0c23.6-10.86,23.47-28.53-0.26-39.39
					c-23.74-10.86-62.23-10.86-85.83,0.01C99.32,185.61,99.45,203.28,123.18,214.14"/>
			</g>
		</g>
	</g>
	<g>
		<g class="st0">
			<g>
				
					<linearGradient id="SVGID_00000088851218703814302780000007946163600839977371_" gradientUnits="userSpaceOnUse" x1="-542.2532" y1="221.2802" x2="-474.5974" y2="221.2802" gradientTransform="matrix(-3.1491 0 0 3.1491 -1435.129 -502.3929)">
					<stop  offset="0" style="stop-color:#47F4FF"/>
					<stop  offset="0.1673" style="stop-color:#41DDFB"/>
					<stop  offset="0.7363" style="stop-color:#2F94F0"/>
					<stop  offset="1" style="stop-color:#2877EB"/>
				</linearGradient>
				<path style="fill:url(#SVGID_00000088851218703814302780000007946163600839977371_);" d="M237.93,162.17
					c39.96,17.56,40.17,46.11,0.47,63.67c-39.67,17.54-104.49,17.56-144.45,0s-40.15-46.13-0.47-63.67
					C133.18,144.61,197.97,144.61,237.93,162.17 M90.83,229.03c41.69,19.07,109.29,19.07,150.71,0
					c41.44-19.08,41.22-50.11-0.46-69.18c-41.69-19.07-109.29-19.07-150.74,0.01C48.93,178.93,49.15,209.96,90.83,229.03"/>
			</g>
		</g>
	</g>
	<g>
		<g class="st0">
			<g>
				
					<linearGradient id="SVGID_00000145740456290443512420000011215520938618201484_" gradientUnits="userSpaceOnUse" x1="-559.2422" y1="221.2798" x2="-457.6091" y2="221.2798" gradientTransform="matrix(-3.1491 0 0 3.1491 -1435.129 -502.3929)">
					<stop  offset="0" style="stop-color:#47F4FF"/>
					<stop  offset="0.1673" style="stop-color:#41DDFB"/>
					<stop  offset="0.7363" style="stop-color:#2F94F0"/>
					<stop  offset="1" style="stop-color:#2877EB"/>
				</linearGradient>
				<path style="fill:url(#SVGID_00000145740456290443512420000011215520938618201484_);" d="M274.08,146.04
					c60.03,26.72,60.35,70.19,0.71,96.92c-59.6,26.71-156.97,26.73-217,0c-60.03-26.72-60.31-70.21-0.71-96.92
					C116.72,119.32,214.05,119.32,274.08,146.04 M53.11,246.4c62.62,28.64,164.18,28.64,226.39,0
					c62.26-28.66,61.92-75.27-0.7-103.92s-164.18-28.64-226.43,0.02C-9.84,171.15-9.51,217.75,53.11,246.4"/>
			</g>
		</g>
	</g>
</g>
<g>
	
		<linearGradient id="SVGID_00000082337762237413790160000002859332411654589111_" gradientUnits="userSpaceOnUse" x1="197.4786" y1="71.9175" x2="134.5214" y2="117.2025" gradientTransform="matrix(1 0 0 -1 0 270)">
		<stop  offset="0" style="stop-color:#47F4FF"/>
		<stop  offset="0.1673" style="stop-color:#41DDFB"/>
		<stop  offset="0.7363" style="stop-color:#2F94F0"/>
		<stop  offset="1" style="stop-color:#2877EB"/>
	</linearGradient>
	
		<polygon style="fill:none;stroke:url(#SVGID_00000082337762237413790160000002859332411654589111_);stroke-width:0.75;stroke-linecap:round;stroke-linejoin:round;stroke-miterlimit:10;" points="
		165.66,202.87 118.97,175.06 166.34,148 213.03,175.82 	"/>
	<g>
		
			<linearGradient id="SVGID_00000030457783382120492670000014389033601467838598_" gradientUnits="userSpaceOnUse" x1="127.6601" y1="113.2402" x2="181.3282" y2="84.5088" gradientTransform="matrix(1 0 0 -1 0 270)">
			<stop  offset="0" style="stop-color:#E5E7FD"/>
			<stop  offset="0.8309" style="stop-color:#EDEFFF"/>
			<stop  offset="1" style="stop-color:#EFF1FF"/>
		</linearGradient>
		<polygon style="fill:url(#SVGID_00000030457783382120492670000014389033601467838598_);" points="165.45,210.29 114,180.6 
			126.39,162.96 204.02,164.34 216,181.42 		"/>
		
			<linearGradient id="SVGID_00000035498722945957091350000011092317561642728850_" gradientUnits="userSpaceOnUse" x1="184.248" y1="91.4836" x2="138.79" y2="124.1814" gradientTransform="matrix(1 0 0 -1 0 270)">
			<stop  offset="0" style="stop-color:#FEFEFE"/>
			<stop  offset="0.6024" style="stop-color:#F2F5FF"/>
			<stop  offset="1" style="stop-color:#E8ECFF"/>
		</linearGradient>
		<path style="fill:url(#SVGID_00000035498722945957091350000011092317561642728850_);" d="M162.39,187.44l-35.37-21.07
			c-1.52-0.9-1.5-3.11,0.04-3.99l35.91-20.51c1.44-0.82,3.22-0.81,4.65,0.04l35.37,21.07c1.52,0.9,1.5,3.11-0.04,3.99l-35.91,20.51
			C165.59,188.31,163.82,188.29,162.39,187.44z"/>
	</g>
	<g>
		
			<linearGradient id="SVGID_00000074441954368307246310000005031550910736937104_" gradientUnits="userSpaceOnUse" x1="187.2349" y1="130.0623" x2="144.8251" y2="160.5677" gradientTransform="matrix(1 0 0 -1 0 270)">
			<stop  offset="0" style="stop-color:#47F4FF"/>
			<stop  offset="0.1673" style="stop-color:#41DDFB"/>
			<stop  offset="0.7363" style="stop-color:#2F94F0"/>
			<stop  offset="1" style="stop-color:#2877EB"/>
		</linearGradient>
		
			<line style="fill:none;stroke:url(#SVGID_00000074441954368307246310000005031550910736937104_);stroke-width:6;stroke-linecap:round;stroke-linejoin:round;stroke-miterlimit:10;" x1="166.03" y1="85.09" x2="166.03" y2="164.28"/>
		
			<radialGradient id="SVGID_00000003804533304499777290000003416953543957578658_" cx="170.6681" cy="190.8189" r="30.4559" gradientTransform="matrix(1 0 0 -1 0 270)" gradientUnits="userSpaceOnUse">
			<stop  offset="0" style="stop-color:#47F4FF"/>
			<stop  offset="0.1673" style="stop-color:#41DDFB"/>
			<stop  offset="0.7363" style="stop-color:#2F94F0"/>
			<stop  offset="1" style="stop-color:#2877EB"/>
		</radialGradient>
		<path style="fill:url(#SVGID_00000003804533304499777290000003416953543957578658_);" d="M183.72,85.09
			c0,9.77-7.92,17.69-17.69,17.69s-17.69-7.92-17.69-17.69s7.92-17.69,17.69-17.69C175.8,67.4,183.72,75.32,183.72,85.09z"/>
		<g>
			
				<linearGradient id="SVGID_00000011026492757330083660000018007573886243096720_" gradientUnits="userSpaceOnUse" x1="32.6093" y1="-169.3274" x2="80.9825" y2="-169.3274" gradientTransform="matrix(0.7071 -0.7071 -0.7071 -0.7071 6.1333 -22.741)">
				<stop  offset="0" style="stop-color:#47F4FF"/>
				<stop  offset="0.1673" style="stop-color:#41DDFB"/>
				<stop  offset="0.7363" style="stop-color:#2F94F0"/>
				<stop  offset="1" style="stop-color:#2877EB"/>
			</linearGradient>
			
				<path style="fill:none;stroke:url(#SVGID_00000011026492757330083660000018007573886243096720_);stroke-width:7;stroke-linecap:round;stroke-linejoin:round;stroke-miterlimit:10;" d="
				M136.77,56.83c16.16-16.16,42.36-16.16,58.51,0"/>
			
				<linearGradient id="SVGID_00000053538438029283937240000012282440628822164119_" gradientUnits="userSpaceOnUse" x1="32.6093" y1="-159.9016" x2="99.8341" y2="-159.9016" gradientTransform="matrix(0.7071 -0.7071 -0.7071 -0.7071 6.1333 -22.741)">
				<stop  offset="0" style="stop-color:#47F4FF"/>
				<stop  offset="0.1673" style="stop-color:#41DDFB"/>
				<stop  offset="0.7363" style="stop-color:#2F94F0"/>
				<stop  offset="1" style="stop-color:#2877EB"/>
			</linearGradient>
			
				<path style="fill:none;stroke:url(#SVGID_00000053538438029283937240000012282440628822164119_);stroke-width:7;stroke-linecap:round;stroke-linejoin:round;stroke-miterlimit:10;" d="
				M123.44,43.5c23.52-23.52,61.65-23.52,85.17,0"/>
			
				<linearGradient id="SVGID_00000018209685638944030570000014661494136704351129_" gradientUnits="userSpaceOnUse" x1="32.6093" y1="-149.9772" x2="119.697" y2="-149.9772" gradientTransform="matrix(0.7071 -0.7071 -0.7071 -0.7071 6.1333 -22.741)">
				<stop  offset="0" style="stop-color:#47F4FF"/>
				<stop  offset="0.1673" style="stop-color:#41DDFB"/>
				<stop  offset="0.7363" style="stop-color:#2F94F0"/>
				<stop  offset="1" style="stop-color:#2877EB"/>
			</linearGradient>
			
				<path style="fill:none;stroke:url(#SVGID_00000018209685638944030570000014661494136704351129_);stroke-width:7;stroke-linecap:round;stroke-linejoin:round;stroke-miterlimit:10;" d="
				M109.4,29.46c31.27-31.27,81.98-31.27,113.26,0"/>
		</g>
	</g>
</g>
</svg>
