<?xml version="1.0" encoding="utf-8"?>
<!-- Svg Vector Icons : http://www.onlinewebfonts.com/icon -->
<!DOCTYPE svg PUBLIC "-//W3C//DTD SVG 1.1//EN" "http://www.w3.org/Graphics/SVG/1.1/DTD/svg11.dtd">
<svg version="1.1"
	xmlns="http://www.w3.org/2000/svg"
	xmlns:xlink="http://www.w3.org/1999/xlink" x="0px" y="0px" viewBox="0 0 256 256" enable-background="new 0 0 256 256" xml:space="preserve">
	<metadata> Svg Vector Icons : http://www.onlinewebfonts.com/icon </metadata>
	<g>
		<g>
			<path fill="" d="M219.3,94.4h-5.7V67c0-0.2,0-0.3,0-0.5c0-1.1-0.4-2.1-1.1-3l-45.5-52c0,0,0,0,0,0c-0.3-0.3-0.6-0.6-0.9-0.8c-0.1-0.1-0.2-0.1-0.3-0.2c-0.3-0.2-0.6-0.3-0.9-0.4c-0.1,0-0.2,0-0.2-0.1c-0.3-0.1-0.7-0.1-1.1-0.1H51.6c-5.1,0-9.2,4.1-9.2,9.2v75.2h-5.7c-7.3,0-13.2,5.9-13.2,13.2v68.8c0,7.3,5.9,13.2,13.2,13.2h5.7v47.1c0,5.1,4.1,9.3,9.2,9.3h152.7c5.1,0,9.2-4.1,9.2-9.3v-47.1h5.7c7.3,0,13.2-5.9,13.2-13.2v-68.8C232.5,100.3,226.6,94.4,219.3,94.4z M51.6,19.2h107.2v47.4c0,2.6,2.1,4.6,4.6,4.6h40.9v23.2H51.6V19.2z M145.4,145.4c-9.1-3.2-15-8.2-15-16.2c0-9.3,7.8-16.5,20.7-16.5c6.2,0,10.7,1.3,14,2.8l-2.8,10c-2.2-1.1-6.1-2.6-11.4-2.6c-5.3,0-7.9,2.4-7.9,5.3c0,3.5,3.1,5,10.1,7.7c9.7,3.6,14.2,8.6,14.2,16.3c0,9.2-7.1,17-22.1,17c-6.3,0-12.4-1.6-15.5-3.3l2.5-10.2c3.3,1.7,8.5,3.4,13.7,3.4c5.7,0,8.7-2.4,8.7-5.9C154.6,149.7,152,147.8,145.4,145.4z M124.5,158v10.4H90.3v-54.8h12.4V158L124.5,158L124.5,158z M50.5,168.4H36.4l15.8-27.7l-15.3-27h14.2l4.8,10c1.6,3.3,2.8,6,4.1,9.1h0.2c1.3-3.5,2.4-5.9,3.7-9.1l4.6-10h14.1l-15.4,26.7l16.3,28H69.3l-5-9.9c-2-3.8-3.3-6.6-4.9-9.8h-0.2c-1.1,3.2-2.5,6-4.2,9.8L50.5,168.4z M204.4,234.2H51.6v-44.6h152.7L204.4,234.2L204.4,234.2z M204.5,168.4l-5-9.9c-2-3.8-3.3-6.6-4.9-9.8h-0.2c-1.1,3.2-2.5,6-4.2,9.8l-4.6,9.9h-14.1l15.8-27.7l-15.3-27h14.2l4.8,10c1.6,3.3,2.8,6,4.1,9.1h0.2c1.3-3.5,2.4-5.9,3.7-9.1l4.6-10h14.1l-15.4,26.7l16.2,28H204.5L204.5,168.4z"/>
		</g>
	</g>
</svg>